{
  "asset": {
    "version": "2.0",
    "generator": "3dpea GLTFExporter"
  },
  "scenes": [
    {
      "name": "AuxScene",
      "nodes": [
        1
      ]
    }
  ],
  "scene": 0,
  "nodes": [
    {
      "matrix": [
        1,
        0,
        0,
        0,
        0,
        -9.765077635393027e-12,
        -1.000000000009765,
        0,
        0,
        1.000000000009765,
        -9.765077635393027e-12,
        0,
        0,
        0,
        0,
        1
      ],
      "name": "mesh_0",
      "mesh": 0
    },
    {
      "name": "RC_Pulse_Jet",
      "children": [
        0
      ]
    }
  ],
  "bufferViews": [
    {
      "buffer": 0,
      "byteOffset": 0,
      "byteLength": 129324,
      "target": 34962,
      "byteStride": 12
    },
    {
      "buffer": 0,
      "byteOffset": 129324,
      "byteLength": 127428,
      "target": 34963
    }
  ],
  "buffers": [
    {
      "byteLength": 256752,
      "uri": "data:application/octet-stream;base64,"
    }
  ],
  "accessors": [
    {
      "bufferView": 0,
      "componentType": 5126,
      "count": 10777,
      "max": [
        2081.176025390625,
        346.622802734375,
        2176.46875
      ],
      "min": [
        12.069463729858398,
        3.3144466876983643,
        0.00095367431640625
      ],
      "type": "VEC3"
    },
    {
      "bufferView": 1,
      "componentType": 5123,
      "count": 63714,
      "max": [
        10776
      ],
      "min": [
        0
      ],
      "type": "SCALAR"
    }
  ],
  "materials": [
    {
      "pbrMetallicRoughness": {
        "baseColorFactor": [
          0.5906188409113381,
          0.5906188409113381,
          0.5906188409113381,
          1
        ],
        "metallicFactor": 1,
        "roughnessFactor": 1
      },
      "name": "Mat_1"
    }
  ],
  "meshes": [
    {
      "primitives": [
        {
          "mode": 4,
          "attributes": {
            "POSITION": 0
          },
          "indices": 1,
          "material": 0
        }
      ]
    }
  ]
}